<svg width="72" height="72" viewBox="0 0 72 72" fill="none" xmlns="http://www.w3.org/2000/svg">
<path d="M36 39V63M48 51L36 39L24 51M12 44.697C9.77116 42.4198 8.08974 39.6651 7.08314 36.6418C6.07654 33.6185 5.77116 30.4057 6.19012 27.2469C6.60909 24.0881 7.74141 21.066 9.50132 18.4096C11.2612 15.7532 13.6026 13.5321 16.348 11.9147C19.0935 10.2972 22.171 9.32566 25.3475 9.07373C28.5241 8.82181 31.7163 9.29606 34.6823 10.4606C37.6484 11.6251 40.3106 13.4493 42.4672 15.7951C44.6239 18.1409 46.2184 20.9467 47.13 24H52.5C55.3966 23.9997 58.2164 24.931 60.543 26.6563C62.8696 28.3817 64.5796 30.8096 65.4204 33.5814C66.2611 36.3532 66.1881 39.322 65.212 42.0491C64.236 44.7763 62.4087 47.1171 60 48.726" stroke="#818181" stroke-width="6" stroke-linecap="round" stroke-linejoin="round"/>
</svg>
