<svg width="90" height="75" viewBox="0 0 90 75" fill="none" xmlns="http://www.w3.org/2000/svg">
<path d="M70.0616 0.838698H68.7916L65.6416 3.5887C65.6416 3.5887 65.1616 4.0287 64.9916 3.5887C64.9916 3.5887 64.8016 2.2187 63.6516 1.5287C63.6516 1.5287 57.4016 -2.9613 41.8016 3.4487C41.8016 3.4487 20.4816 12.8487 9.30156 24.6687C9.30156 24.6687 1.54156 32.0487 0.0615615 37.8087C0.0615615 37.8087 -0.618438 41.3487 2.54156 42.4487C2.54156 42.4487 9.83156 45.0187 23.4916 39.0887C23.4916 39.0887 34.1716 34.2387 35.9816 32.3687H33.9516C33.9516 32.3687 22.8116 38.6187 16.5316 39.9687C16.5316 39.9687 4.58156 42.9687 7.80156 35.6187C7.80156 35.6187 14.1816 21.4787 45.5516 5.6287C45.5516 5.6287 50.8616 3.1787 55.6616 2.6287C55.6616 2.6287 62.0016 1.9187 61.8116 5.4987C61.8116 5.4987 61.6216 7.2087 60.1716 8.5587L57.1416 11.7187H58.0416L70.0616 0.838698Z" fill="#818181"/>
<path d="M85.7315 70.1587C84.8015 70.1587 83.9515 69.6487 83.5115 68.8387L67.9115 40.0487L51.5815 9.9387L35.2615 40.0487L19.6615 68.8387C19.2215 69.6587 18.3615 70.1587 17.4415 70.1587H13.8915V74.2087H89.3015V70.1587H85.7315Z" fill="#818181"/>
</svg>
